<svg width="312" height="312" viewBox="0 0 312 312" fill="none" xmlns="http://www.w3.org/2000/svg">
<path fill-rule="evenodd" clip-rule="evenodd" d="M312 96C312 69.4903 290.51 48 264 48C237.49 48 216 69.4903 216 96L216 216C216 229.255 205.255 240 192 240C178.745 240 168 229.255 168 216L144 216C144 242.51 165.49 264 192 264C218.51 264 240 242.51 240 216L240 96C240 82.7452 250.745 72 264 72C277.255 72 288 82.7452 288 96V120H312V96Z" fill="#222222"/>
<path fill-rule="evenodd" clip-rule="evenodd" d="M120 72C133.255 72 144 82.7452 144 96V144H94L94 168H144V216H168V168V144V96C168 69.4903 146.51 48 120 48C93.4903 48 72 69.4903 72 96V120H96V96C96 82.7452 106.745 72 120 72Z" fill="#FFBF00"/>
<path fill-rule="evenodd" clip-rule="evenodd" d="M72 119H96V216C96 242.51 74.5097 264 48 264C21.4903 264 0 242.51 4.19629e-06 216L0 192H24L24 216C24 229.255 34.7452 240 48 240C61.2548 240 72 229.255 72 216V119Z" fill="#222222"/>
</svg>
