<?xml version="1.0" encoding="UTF-8"?>
<svg width="128px" height="128px" viewBox="0 0 128 128" version="1.1" xmlns="http://www.w3.org/2000/svg" xmlns:xlink="http://www.w3.org/1999/xlink">
    <title>Logo</title>
    <g id="Logo" stroke="none" stroke-width="1" fill="none" fill-rule="evenodd">
        <rect id="Rectangle" fill="#203342" x="0" y="0" width="128" height="128" rx="16"></rect>
        <path d="M100.5625,31 C109.088396,31 116,37.9116042 116,46.4375 L116,56.1875 L109.5,56.1875 L109.5,46.4375 C109.5,41.501455 105.498545,37.5 100.5625,37.5 C95.626455,37.5 91.625,41.501455 91.625,46.4375 L91.625,81.375 L91.6218497,81.6900258 C91.4540971,90.0704993 84.6081379,96.8125 76.1875,96.8125 C67.6616042,96.8125 60.75,89.9008958 60.75,81.375 L60.75,81.375 L67.25,81.375 C67.25,86.311045 71.251455,90.3125 76.1875,90.3125 C81.123545,90.3125 85.125,86.311045 85.125,81.375 L85.125,81.375 L85.125,46.4375 C85.125,37.9116042 92.0366042,31 100.5625,31 Z M36.375,52.9375 L42.875,52.9375 L42.875,61.0625 L60.75,61.0625 L60.75,46.4375 C60.75,41.501455 56.748545,37.5 51.8125,37.5 C46.876455,37.5 42.875,41.501455 42.875,46.4375 L36.375,46.4375 C36.375,37.9116042 43.2866042,31 51.8125,31 C60.3383958,31 67.25,37.9116042 67.25,46.4375 L67.25,74.875 L60.75,74.875 L60.75,65.9375 L42.875,65.9375 L42.875,81.375 L42.8718497,81.6900258 C42.7040971,90.0704993 35.8581379,96.8125 27.4375,96.8125 C18.9116042,96.8125 12,89.9008958 12,81.375 L12,81.375 L12,71.625 L18.5,71.625 L18.5,81.375 L18.5038105,81.6385195 C18.6432071,86.4526781 22.5895987,90.3125 27.4375,90.3125 C32.373545,90.3125 36.375,86.311045 36.375,81.375 L36.375,81.375 L36.375,52.9375 Z" id="Combined-Shape" fill="#EAE8E3"></path>
    </g>
</svg>