<?xml version="1.0" encoding="UTF-8"?>
<svg width="128px" height="128px" viewBox="0 0 128 128" version="1.1" xmlns="http://www.w3.org/2000/svg" xmlns:xlink="http://www.w3.org/1999/xlink">
    <title>Logo</title>
    <g id="With-Shapes" stroke="none" stroke-width="1" fill="none" fill-rule="evenodd">
        <path d="M109,24 C119.49341,24 128,32.5065898 128,43 L128,55 L120,55 L120,43 C120,36.9248678 115.075132,32 109,32 C102.924868,32 98,36.9248678 98,43 L98,86 L97.9970575,86.3377998 C97.8168329,96.6753641 89.3805779,105 79,105 C68.5065898,105 60,96.4934102 60,86 L60,86 L68,86 C68,92.0751322 72.9248678,97 79,97 C85.0751322,97 90,92.0751322 90,86 L90,86 L90,43 C90,32.5065898 98.5065898,24 109,24 Z M30,51 L38,51 L38,61 L60,61 L60,43 C60,36.9248678 55.0751322,32 49,32 C42.9248678,32 38,36.9248678 38,43 L30,43 C30,32.5065898 38.5065898,24 49,24 C59.4934102,24 68,32.5065898 68,43 L68,78 L60,78 L60,67 L38,67 L38,86 L37.9970575,86.3377998 C37.8168329,96.6753641 29.3805779,105 19,105 C8.50658975,105 0,96.4934102 0,86 L0,86 L0,74 L8,74 L8,86 L8.0037074,86.2884075 C8.15663482,92.2302364 13.0212984,97 19,97 C25.0751322,97 30,92.0751322 30,86 L30,86 L30,51 Z" id="Combined-Shape" fill="#222222"></path>
    </g>
</svg>
