<?xml version="1.0" encoding="UTF-8"?>
<svg width="128px" height="128px" viewBox="0 0 128 128" version="1.1" xmlns="http://www.w3.org/2000/svg" xmlns:xlink="http://www.w3.org/1999/xlink">
    <title>Persado Icon  Alt</title>
    <g id="Persado-Icon--Alt" stroke="none" stroke-width="1" fill="none" fill-rule="evenodd">
        <rect id="Rectangle" fill="#E8DAB2" x="0" y="0" width="128" height="128" rx="16"></rect>
        <path d="M34.399986,28 L34.399986,36 L20,36 L20,93.599 L34.399986,93.599959 L34.399986,101.599959 L12,101.599954 L12,28 L34.399986,28 Z" id="Combined-Shape" fill="#203342"></path>
        <path d="M115.399986,28 L115.399986,36 L101,36 L101,93.599 L115.399986,93.599959 L115.399986,101.599959 L93,101.599954 L93,28 L115.399986,28 Z" id="Combined-Shape" fill="#203342" transform="translate(104.199993, 64.799977) scale(-1, 1) translate(-104.199993, -64.799977) "></path>
        <path d="M68.2666539,37 C78.4286869,37 85.4244891,45.2379554 85.4244891,55.3999884 C85.4244891,65.4478413 78.5850128,73.6146114 68.6079898,73.7968658 L68.2666539,73.7999819 L56,73.799 L56,91.9332988 L48,91.9332988 L48,37 L68.2666539,37 L68.2666539,37 Z M68.2666539,65.7999819 C73.5892673,65.7999819 77.4244942,61.5702853 77.4244942,55.3999884 C77.4244942,49.2296916 73.5892673,44.999995 68.2666539,44.999995 L68.2666539,45 L56,45 L56,65.799 L68.2666539,65.7999819 L68.2666539,65.7999819 Z" id="Combined-Shape" fill="#203342"></path>
    </g>
</svg>
